<svg width="1038" height="1039" viewBox="0 0 1038 1039" fill="none" xmlns="http://www.w3.org/2000/svg">
<g clip-path="url(#clip0_0_1)">
<path d="M579.286 409.064C573.734 409.064 569.214 413.582 569.214 419.15C569.214 424.718 573.734 429.238 579.286 429.238C584.868 429.238 589.389 424.718 589.389 419.15C589.389 413.582 584.869 409.064 579.286 409.064Z" fill="#FFD600"/>
<path d="M744.636 457.253C744.636 457.238 744.636 457.224 744.636 457.224C744.547 457.121 744.458 457.032 744.37 456.928C744.252 456.795 744.134 456.662 744.015 456.544C743.927 456.426 743.808 456.323 743.69 456.219C743.601 456.116 743.483 456.012 743.365 455.909C743.247 455.806 743.129 455.717 743.011 455.613C742.892 455.524 742.774 455.435 742.656 455.347C742.509 455.244 742.391 455.155 742.243 455.082C742.214 455.037 742.154 455.008 742.125 454.979L700.035 428.572L655.907 396.053L648.462 366.323C647.636 363.031 645.213 360.372 641.994 359.25C641.433 359.043 635.495 356.99 626.31 354.642L580.912 294.313C579.022 291.802 576.098 290.325 572.937 290.296C572.907 290.296 572.877 290.296 572.848 290.296C569.746 290.296 566.822 291.714 564.902 294.166L555.272 306.482L536.962 282.039C535.189 279.691 532.508 278.229 529.599 278.022C526.69 277.83 523.826 278.893 521.757 280.961L501.598 301.12C498.674 304.029 497.832 308.431 499.456 312.226L504.744 324.542C504.862 324.794 504.98 325.044 505.113 325.296L518.803 351.081V360.932C510.622 364.418 503.665 367.829 499.073 370.177L435.213 323.244C431.728 320.688 427.001 320.629 423.457 323.096C419.912 325.577 418.348 330.038 419.559 334.187L432.851 379.895C433.367 381.638 434.327 383.219 435.671 384.458L463.48 410.333C453.806 419.651 436.04 437.625 412.766 464.932C401.851 477.722 391.351 490.674 381.308 503.582C381.249 503.656 381.19 503.715 381.161 503.789C370.705 517.228 360.751 530.622 351.315 543.795C351.005 544.15 350.739 544.534 350.503 544.933C337.123 563.66 324.805 581.885 313.699 599.03C313.374 599.444 313.108 599.872 312.856 600.33C299.55 620.904 288.001 639.88 278.417 656.229C277.043 658.548 276.689 661.325 277.369 663.937C278.078 666.537 279.79 668.752 282.139 670.097L441.712 760.686C443.248 761.558 444.962 762.001 446.704 762.001C447.988 762.001 449.288 761.749 450.514 761.248C453.379 760.066 455.535 757.643 456.392 754.677C492.989 625.924 530.278 548.375 543.075 523.623C553.68 527.937 568.122 530.047 586.761 530.047C622.913 530.047 663.97 522.058 675.312 519.709L706.799 531.538C708.129 532.04 709.546 532.263 710.964 532.174L744.843 530.091C748.388 529.884 751.549 527.819 753.173 524.673C753.97 523.137 760.971 509.239 760.971 494.264C760.97 478.268 746.319 459.35 744.636 457.253ZM572.701 316.936L596.744 348.897C593.348 348.453 589.833 348.085 586.288 347.818L567.826 323.185L572.701 316.936ZM456.421 446.294C457.396 449.219 458.371 452.393 459.257 455.672C464.913 476.408 462.152 482.108 461.856 482.625C460.556 483.689 453.32 488.429 422.114 494.425C419.027 495.015 415.985 495.562 413.062 496.079C418.26 489.684 423.163 483.807 427.711 478.459C438.581 465.7 448.269 454.993 456.421 446.294ZM361.001 595.102C362.611 597.774 364.724 607.936 363.985 624.963C363.586 634.209 362.522 641.504 361.37 646.614C354.754 638.963 344.298 623.929 333.516 605.513C340.324 595.087 347.014 585.131 353.543 575.666C355.375 582.636 357.798 589.771 361.001 595.102ZM454.368 691.657C441.756 693.459 427.533 693.06 423.871 689.488C422.291 687.317 419.308 675.872 419.942 653.732C420.415 637.058 422.602 625.259 424.256 620.017C427.947 620.933 436.189 623.826 452.596 632.954C459.523 636.808 466.021 640.736 470.599 643.572C465.341 658.399 459.892 674.423 454.368 691.657ZM495.35 579.123C486.815 577.498 472.519 574.677 457.691 571.309C435.774 566.363 423 562.566 415.63 559.952C419.883 558.224 426.057 556.052 434.947 553.425C449.834 549.038 466.493 545.065 478.662 542.17C483.92 540.917 488.069 539.927 490.979 539.174C497.566 537.446 505.142 541.006 510.444 544.549C505.97 554.268 500.889 565.787 495.35 579.123ZM737.428 510.346L711.88 511.91L679.625 499.785C677.792 499.106 675.814 498.958 673.894 499.386C673.421 499.49 626.044 509.887 586.76 509.887C559.645 509.887 549.012 504.88 545.083 501.897C544.994 501.838 544.905 501.794 544.847 501.735C544.669 501.601 544.492 501.483 544.314 501.365C544.167 501.276 544.018 501.202 543.871 501.129C543.782 501.069 543.664 500.995 543.546 500.937L523.557 490.806C518.594 488.295 512.509 490.289 509.999 495.251C507.488 500.213 509.466 506.283 514.443 508.793L525.195 514.243C523.527 517.433 521.489 521.435 519.126 526.236C510.826 521.214 498.657 516.326 485.867 519.663C483.178 520.372 478.925 521.377 473.992 522.559C460.877 525.676 441.058 530.4 424.562 535.511C398.628 543.515 388.984 549.644 387.7 558.903C387.153 562.892 388.246 568.652 396.606 573.554C399.795 575.429 404.167 577.32 409.941 579.329C418.832 582.414 431.223 585.841 446.758 589.489C461.97 593.063 477.359 596.178 487.637 598.173C484.418 606.311 481.065 615.01 477.64 624.224C472.279 620.976 465.455 616.945 458.337 613.104C449.062 608.098 441.205 604.45 434.973 602.235C427.19 599.472 417.428 597.109 410.856 603.446C408.197 606.001 404.816 610.859 402.29 625.893C400.798 634.77 399.882 645.551 399.705 656.228C399.352 680.669 402.601 696.576 409.379 703.515C415.537 709.807 425.462 712.88 439.669 712.88C441.028 712.88 442.446 712.85 443.893 712.791C445.222 712.746 446.522 712.673 447.791 712.584C445.385 720.44 442.963 728.519 440.54 736.833L301.012 657.617C307.879 646.097 314.672 635.036 321.378 624.401C324.095 628.788 327.256 633.796 330.593 638.83C348.581 665.828 356.851 671.396 364.354 671.618C364.502 671.618 364.62 671.618 364.768 671.618C369.184 671.618 373.112 669.461 375.579 665.65C382.18 655.49 383.761 634.416 384.13 625.834C384.603 614.906 384.47 595.028 378.297 584.719C373.806 577.247 370.853 561.651 369.583 552.923C378.341 540.784 386.729 529.573 394.63 519.339C400.758 518.497 412.796 516.741 425.821 514.244C460.822 507.525 470.777 501.602 475.206 497.733C484.068 490.009 485.309 475.477 479.165 452.024C476.891 443.429 474.099 435.424 472.106 430.138C480.229 422.059 484.836 417.983 484.925 417.908C487.067 416.018 488.322 413.316 488.351 410.466C488.41 407.615 487.228 404.883 485.146 402.949L451.444 371.595L447.235 357.092L492.249 390.19C495.439 392.537 499.693 392.788 503.148 390.853C503.326 390.764 509.956 387.073 519.571 382.657C521.078 386.32 524.68 388.904 528.889 388.904C534.45 388.904 538.969 384.385 538.969 378.817V348.571C538.969 346.932 538.555 345.307 537.787 343.845L523.115 316.199L520.692 310.542L527.795 303.438L581.294 374.756C584.632 379.2 590.954 380.101 595.413 376.764C597.777 374.992 599.106 372.377 599.372 369.66C612.664 371.742 624.035 374.814 630.269 376.675L637.209 404.454C637.771 406.729 639.129 408.738 641.02 410.126L688.397 445.039C688.575 445.186 688.78 445.319 689.016 445.453L694.452 448.864C691.734 448.894 690.02 448.967 689.725 448.982C684.173 449.234 679.86 453.944 680.126 459.512C680.363 465.08 685.089 469.393 690.641 469.127C690.907 469.112 714.035 468.137 730.753 472.317C735.332 478.756 740.796 488.636 740.796 494.263C740.796 500.155 738.995 506.225 737.428 510.346Z" fill="#FFD600"/>
</g>
<g clip-path="url(#clip1_0_1)">
<path d="M802.154 292.482C816.199 297.604 819.608 312.907 807.41 334.638C873.301 444.954 878.558 572.505 821.952 687.869C845.238 722.41 823.661 742.584 778.658 729.076C598.695 780.023 460.296 778.134 276.738 742.148C259.166 749.058 244.912 750.216 235.47 746.78C221.422 741.667 218.015 726.384 230.211 704.633C164.316 594.325 159.06 466.774 215.657 351.407C192.379 316.869 213.96 296.686 258.963 310.195C438.923 259.256 577.314 261.142 760.869 297.108C778.447 290.21 792.712 289.046 802.154 292.482ZM815.776 255.054C799.395 249.092 779.606 249.442 757.966 255.981C564.493 219.124 426.929 222.67 258.539 268.965C208.724 258.128 185.52 280.668 177.547 291.503C171.066 300.315 159.576 321.758 171.336 352.382C120.959 468.49 126.219 595.822 186.004 707.372C180.724 725.667 183.054 740.041 186.688 749.806C192.665 765.919 205.145 778.129 221.847 784.208C238.229 790.17 258.012 789.837 279.646 783.286C473.128 820.147 610.691 816.601 779.099 770.312C828.891 781.131 852.095 758.591 860.074 747.768C866.552 738.964 878.048 717.504 866.284 686.889C916.679 570.786 911.416 443.463 851.625 331.902C856.906 313.607 854.572 299.241 850.944 289.459C844.953 273.36 832.476 261.142 815.776 255.054Z" fill="#EEEEEE"/>
<path d="M207.941 727.657C212.142 729.186 217.008 727.731 219.61 723.844C227.421 712.166 250.346 705.672 257.762 704.313C260.908 703.744 263.587 701.695 264.958 698.795C266.335 695.908 266.237 692.522 264.683 689.716C263.897 688.272 186.029 543.587 245.285 380.781C246.968 376.157 245.004 370.981 240.692 368.627C240.406 368.466 211.797 352.625 207.517 330.037C206.498 324.631 201.316 321.089 195.893 322.102C190.484 323.129 186.933 328.336 187.955 333.734C192.388 357.163 212.733 373.958 223.882 381.568C174.992 524.915 223.896 650.184 241.554 687.932C229.499 691.729 212.095 699.255 203.05 712.772C199.988 717.343 201.214 723.523 205.797 726.579C206.473 727.036 207.197 727.386 207.941 727.657Z" fill="#EEEEEE"/>
<path d="M187.381 644.992C189.486 645.758 191.854 645.825 194.127 645.025L231.816 631.605C237 629.749 239.706 624.052 237.87 618.866C236.011 613.69 230.321 611.016 225.133 612.832L187.444 626.252C182.26 628.108 179.557 633.797 181.393 638.983C182.441 641.892 184.685 644.01 187.381 644.992Z" fill="#EEEEEE"/>
<path d="M166.663 559.579C167.965 560.053 169.396 560.277 170.879 560.147L215.49 556.56C220.963 556.12 225.055 551.321 224.605 545.825C224.177 540.347 219.392 536.241 213.878 536.714L169.27 540.292C163.797 540.732 159.705 545.531 160.147 551.024C160.476 555.04 163.13 558.294 166.663 559.579Z" fill="#EEEEEE"/>
<path d="M166.488 462.988C166.944 463.154 167.413 463.286 167.906 463.379L213.645 472.761C219.027 473.859 224.29 470.395 225.41 465.002C226.508 459.619 223.147 454.309 217.652 453.256L171.918 443.886C166.531 442.777 161.265 446.25 160.151 451.626C159.149 456.535 161.932 461.329 166.488 462.988Z" fill="#EEEEEE"/>
</g>
<defs>
<clipPath id="clip0_0_1">
<rect width="484" height="484" fill="white" transform="translate(277 278)"/>
</clipPath>
<clipPath id="clip1_0_1">
<rect width="809.561" height="809.561" fill="white" transform="translate(276.886 0.819046) rotate(20)"/>
</clipPath>
</defs>
</svg>
